<mxfile host="app.diagrams.net" modified="2023-04-28T13:56:55.833Z" agent="Mozilla/5.0 (Windows NT 10.0; Win64; x64) AppleWebKit/537.36 (KHTML, like Gecko) Chrome/112.0.0.0 Safari/537.36 Edg/112.0.1722.58" etag="Vj0EdcCQFJACxL2bZrg0" version="21.2.3" type="github">
  <diagram name="第 1 页" id="o2DpmFAmiIUJpTXdAwD9">
    <mxGraphModel dx="1377" dy="796" grid="1" gridSize="10" guides="1" tooltips="1" connect="1" arrows="1" fold="1" page="1" pageScale="1" pageWidth="827" pageHeight="1169" math="0" shadow="0">
      <root>
        <mxCell id="0" />
        <mxCell id="1" parent="0" />
        <mxCell id="1k9GQQE8yl8mR5kFMYxW-7" style="edgeStyle=orthogonalEdgeStyle;rounded=0;orthogonalLoop=1;jettySize=auto;html=1;" edge="1" parent="1" source="1k9GQQE8yl8mR5kFMYxW-1" target="1k9GQQE8yl8mR5kFMYxW-4">
          <mxGeometry relative="1" as="geometry">
            <Array as="points">
              <mxPoint x="380" y="150" />
              <mxPoint x="140" y="150" />
            </Array>
          </mxGeometry>
        </mxCell>
        <mxCell id="1k9GQQE8yl8mR5kFMYxW-8" style="edgeStyle=orthogonalEdgeStyle;rounded=0;orthogonalLoop=1;jettySize=auto;html=1;entryX=0.5;entryY=0;entryDx=0;entryDy=0;" edge="1" parent="1" source="1k9GQQE8yl8mR5kFMYxW-1" target="1k9GQQE8yl8mR5kFMYxW-6">
          <mxGeometry relative="1" as="geometry" />
        </mxCell>
        <mxCell id="1k9GQQE8yl8mR5kFMYxW-9" style="edgeStyle=orthogonalEdgeStyle;rounded=0;orthogonalLoop=1;jettySize=auto;html=1;entryX=0.5;entryY=0;entryDx=0;entryDy=0;" edge="1" parent="1" source="1k9GQQE8yl8mR5kFMYxW-1" target="1k9GQQE8yl8mR5kFMYxW-2">
          <mxGeometry relative="1" as="geometry">
            <Array as="points">
              <mxPoint x="380" y="150" />
              <mxPoint x="620" y="150" />
            </Array>
          </mxGeometry>
        </mxCell>
        <mxCell id="1k9GQQE8yl8mR5kFMYxW-1" value="量化第一版" style="rounded=0;whiteSpace=wrap;html=1;" vertex="1" parent="1">
          <mxGeometry x="320" y="40" width="120" height="60" as="geometry" />
        </mxCell>
        <mxCell id="1k9GQQE8yl8mR5kFMYxW-15" value="" style="edgeStyle=orthogonalEdgeStyle;rounded=0;orthogonalLoop=1;jettySize=auto;html=1;" edge="1" parent="1" source="1k9GQQE8yl8mR5kFMYxW-2" target="1k9GQQE8yl8mR5kFMYxW-14">
          <mxGeometry relative="1" as="geometry" />
        </mxCell>
        <mxCell id="1k9GQQE8yl8mR5kFMYxW-2" value="应用程序设计" style="rounded=0;whiteSpace=wrap;html=1;" vertex="1" parent="1">
          <mxGeometry x="560" y="200" width="120" height="60" as="geometry" />
        </mxCell>
        <mxCell id="1k9GQQE8yl8mR5kFMYxW-13" value="" style="edgeStyle=orthogonalEdgeStyle;rounded=0;orthogonalLoop=1;jettySize=auto;html=1;" edge="1" parent="1" source="1k9GQQE8yl8mR5kFMYxW-4" target="1k9GQQE8yl8mR5kFMYxW-12">
          <mxGeometry relative="1" as="geometry" />
        </mxCell>
        <mxCell id="1k9GQQE8yl8mR5kFMYxW-4" value="公众号消息推送" style="rounded=0;whiteSpace=wrap;html=1;" vertex="1" parent="1">
          <mxGeometry x="80" y="200" width="120" height="60" as="geometry" />
        </mxCell>
        <mxCell id="1k9GQQE8yl8mR5kFMYxW-11" value="" style="edgeStyle=orthogonalEdgeStyle;rounded=0;orthogonalLoop=1;jettySize=auto;html=1;" edge="1" parent="1" source="1k9GQQE8yl8mR5kFMYxW-6" target="1k9GQQE8yl8mR5kFMYxW-10">
          <mxGeometry relative="1" as="geometry" />
        </mxCell>
        <mxCell id="1k9GQQE8yl8mR5kFMYxW-6" value="uninapp界面展示" style="rounded=0;whiteSpace=wrap;html=1;" vertex="1" parent="1">
          <mxGeometry x="320" y="200" width="120" height="60" as="geometry" />
        </mxCell>
        <mxCell id="1k9GQQE8yl8mR5kFMYxW-10" value="条件选股" style="rounded=0;whiteSpace=wrap;html=1;" vertex="1" parent="1">
          <mxGeometry x="320" y="340" width="120" height="60" as="geometry" />
        </mxCell>
        <mxCell id="1k9GQQE8yl8mR5kFMYxW-12" value="个性化推送" style="rounded=0;whiteSpace=wrap;html=1;" vertex="1" parent="1">
          <mxGeometry x="80" y="340" width="120" height="60" as="geometry" />
        </mxCell>
        <mxCell id="1k9GQQE8yl8mR5kFMYxW-14" value="策略计算研究" style="rounded=0;whiteSpace=wrap;html=1;" vertex="1" parent="1">
          <mxGeometry x="560" y="340" width="120" height="60" as="geometry" />
        </mxCell>
      </root>
    </mxGraphModel>
  </diagram>
</mxfile>
